# xmcd
#
# Track frame offsets:
#	150
#	13569
#	27942
#	43103
#	55165
#	69414
#	83058
#	95190
#	108017
#	120720
#	134896
#	146021
#	159977
#	173882
#	187615
#	201931
#
# Disc length: 2849 seconds
#
# Revision: 0
# Processed by: cddbd v1.5.2PL0 Copyright (c) Steve Scherf et al.
# Submitted via: EasyCDDAExtractor 16.0.6.1
#
DISCID=d90b1f10
DTITLE=Γκρέϋ Καίτη - Τραγούδια 45 στροφές-Γκρέϋ Καίτη 2
DYEAR=2000
DGENRE=Λαϊκή
TTITLE0=Γκρέϋ Καίτη - Όλοι με λένε τυχερή [Θ. Δερβενιώτη-Κ. Βίρβου]
TTITLE1=Γκρέϋ Καίτη - Όποια χαίρεται που κλαίω [Δ. Γκούτη-Αν Κουλούρη]
TTITLE2=Γκρέϋ Καίτη - Φίλα με, φίλα με [Θ. Δερβενιώτη-Κ. Βίρβου]
TTITLE3=Γκρέϋ Καίτη - Παιδί μου να προσέχεις [Θ. Δερβενιώτη-Δ. Γκούτη]
TTITLE4=Γκρέϋ Καίτη-Διαμάντη Λ.-Καλάκη Ρ. - Γι' αυτούς που ταξιδεύουν [Μπ. Μπα
TTITLE4=κάλη-Δ. Γκούτη]
TTITLE5=Γκρέϋ Καίτη - Τα πάντα τελειώσανε [Βασ. Βασιλειάδη]
TTITLE6=Γκρέϋ Καίτη - Εγώ θέλω ελευθερία [Γ. Παλαιολόγου]
TTITLE7=Γκρέϋ Καίτη - Αγάπησα, προδώθηκα, πεθαίνω [Θ. Δερβενιώτη-Κ. Βίρβου]
TTITLE8=Γκρέϋ Καίτη - Μη μού κλείνεις την πόρτα [Αν. Κουλούρη-Δ. Γκούτη]
TTITLE9=Γκρέϋ Καίτη - Μού τάζεις πολλά [Αν. Κουλούρη-Δ. Γκούτη]
TTITLE10=Γκρέϋ Καίτη - Δεν διαφέρεις και συ [Τόλη Βοσκόπουλου-Πυθαγόρα]
TTITLE11=Γκρέϋ Καίτη - Γηρατειά δεν θα γνωρίσω [Μπ. Μπακάλη-Α. Παπαγιαννοπούλο
TTITLE11=υ]
TTITLE12=Γκρέϋ Καίτη - Ένα σπιτάκι είχα κι εγώ [Μπ. Μπακάλη]
TTITLE13=Γκρέϋ Καίτη - Αν λερωθεί η καρδούλα σου [Μπ. Μπακάλη-Ηρ. Παπασιδέρη]
TTITLE14=Γκρέϋ Καίτη - Πλήγωσέ με [Θ. Δερβενιώτη-Κ. Βίρβου]
TTITLE15=Γκρέϋ Καίτη - Στα μάτια είχε τη βροχή [Θ. Δερβενιώτη-Κ. Βίρβου]
EXTD=
EXTT0=
EXTT1=
EXTT2=
EXTT3=
EXTT4=
EXTT5=
EXTT6=
EXTT7=
EXTT8=
EXTT9=
EXTT10=
EXTT11=
EXTT12=
EXTT13=
EXTT14=
EXTT15=
PLAYORDER=
